# xmcd CD database file
#
# Track frame offsets:
#	150
#	19541
#	44204
#	74903
#	93018
#	116401
#	135638
#	151759
#	182441
#	212416
#	231635
#	255004
#
# Disc length: 3706 seconds
#
# Revision: 0
# Processed by: cddbd v1.5.1PL2 Copyright (c) Steve Scherf et al.
# Submitted via: CDex 1.51
#
DISCID=9a0e780c
DTITLE=Bob Dorough - small day tomorrow
DYEAR=2005
DGENRE=Jazz
TTITLE0=Small Day Tomorror
TTITLE1=Marilyn Queen Of Lies
TTITLE2=Antiquated Love
TTITLE3=Harry In The Night
TTITLE4=The Winds Of Heaven
TTITLE5=Feet, Do Your Stuff
TTITLE6=On Top Of Mount Tipsey
TTITLE7=New Song
TTITLE8=The Ballad Of The Sad Young Man
TTITLE9=Nothing Like You (An Extravagant Love Song)
TTITLE10=Never Had The Blues At All
TTITLE11=Evenin Wearies
EXTD=YEAR: 2005
EXTT0=
EXTT1=
EXTT2=
EXTT3=
EXTT4=
EXTT5=
EXTT6=
EXTT7=
EXTT8=
EXTT9=
EXTT10=
EXTT11=
PLAYORDER=
